<svg id="visual" viewBox="0 0 900 450" width="900" height="450" xmlns="http://www.w3.org/2000/svg" xmlns:xlink="http://www.w3.org/1999/xlink" version="1.1"><rect x="0" y="0" width="900" height="450" fill="#fff2f2"></rect><path d="M0 194L12.5 198.7C25 203.3 50 212.7 75 228.8C100 245 125 268 150 270.2C175 272.3 200 253.7 225 237.3C250 221 275 207 300 209.3C325 211.7 350 230.3 375 233.3C400 236.3 425 223.7 450 223.3C475 223 500 235 525 242.8C550 250.7 575 254.3 600 258.5C625 262.7 650 267.3 675 274.3C700 281.3 725 290.7 750 278.3C775 266 800 232 825 220C850 208 875 218 887.5 223L900 228L900 451L887.5 451C875 451 850 451 825 451C800 451 775 451 750 451C725 451 700 451 675 451C650 451 625 451 600 451C575 451 550 451 525 451C500 451 475 451 450 451C425 451 400 451 375 451C350 451 325 451 300 451C275 451 250 451 225 451C200 451 175 451 150 451C125 451 100 451 75 451C50 451 25 451 12.5 451L0 451Z" fill="#fa7268"></path><path d="M0 252L12.5 250.7C25 249.3 50 246.7 75 246.7C100 246.7 125 249.3 150 258.2C175 267 200 282 225 291.5C250 301 275 305 300 297C325 289 350 269 375 272C400 275 425 301 450 298.3C475 295.7 500 264.3 525 255.3C550 246.3 575 259.7 600 263C625 266.3 650 259.7 675 265C700 270.3 725 287.7 750 286.2C775 284.7 800 264.3 825 261.3C850 258.3 875 272.7 887.5 279.8L900 287L900 451L887.5 451C875 451 850 451 825 451C800 451 775 451 750 451C725 451 700 451 675 451C650 451 625 451 600 451C575 451 550 451 525 451C500 451 475 451 450 451C425 451 400 451 375 451C350 451 325 451 300 451C275 451 250 451 225 451C200 451 175 451 150 451C125 451 100 451 75 451C50 451 25 451 12.5 451L0 451Z" fill="#fe9084"></path><path d="M0 291L12.5 299.3C25 307.7 50 324.3 75 331.3C100 338.3 125 335.7 150 334.2C175 332.7 200 332.3 225 331.5C250 330.7 275 329.3 300 332C325 334.7 350 341.3 375 343.8C400 346.3 425 344.7 450 336.7C475 328.7 500 314.3 525 307C550 299.7 575 299.3 600 306.2C625 313 650 327 675 329.7C700 332.3 725 323.7 750 321.2C775 318.7 800 322.3 825 324.5C850 326.7 875 327.3 887.5 327.7L900 328L900 451L887.5 451C875 451 850 451 825 451C800 451 775 451 750 451C725 451 700 451 675 451C650 451 625 451 600 451C575 451 550 451 525 451C500 451 475 451 450 451C425 451 400 451 375 451C350 451 325 451 300 451C275 451 250 451 225 451C200 451 175 451 150 451C125 451 100 451 75 451C50 451 25 451 12.5 451L0 451Z" fill="#ffaca2"></path><path d="M0 324L12.5 327.3C25 330.7 50 337.3 75 334.2C100 331 125 318 150 320.7C175 323.3 200 341.7 225 351C250 360.3 275 360.7 300 355.5C325 350.3 350 339.7 375 334.3C400 329 425 329 450 332.8C475 336.7 500 344.3 525 344.8C550 345.3 575 338.7 600 342.8C625 347 650 362 675 359.8C700 357.7 725 338.3 750 335.8C775 333.3 800 347.7 825 350.8C850 354 875 346 887.5 342L900 338L900 451L887.5 451C875 451 850 451 825 451C800 451 775 451 750 451C725 451 700 451 675 451C650 451 625 451 600 451C575 451 550 451 525 451C500 451 475 451 450 451C425 451 400 451 375 451C350 451 325 451 300 451C275 451 250 451 225 451C200 451 175 451 150 451C125 451 100 451 75 451C50 451 25 451 12.5 451L0 451Z" fill="#ffc8c0"></path><path d="M0 396L12.5 389.8C25 383.7 50 371.3 75 363.5C100 355.7 125 352.3 150 359.3C175 366.3 200 383.7 225 391.7C250 399.7 275 398.3 300 393.5C325 388.7 350 380.3 375 379C400 377.7 425 383.3 450 386.7C475 390 500 391 525 384.5C550 378 575 364 600 362.5C625 361 650 372 675 377.3C700 382.7 725 382.3 750 382.8C775 383.3 800 384.7 825 386.7C850 388.7 875 391.3 887.5 392.7L900 394L900 451L887.5 451C875 451 850 451 825 451C800 451 775 451 750 451C725 451 700 451 675 451C650 451 625 451 600 451C575 451 550 451 525 451C500 451 475 451 450 451C425 451 400 451 375 451C350 451 325 451 300 451C275 451 250 451 225 451C200 451 175 451 150 451C125 451 100 451 75 451C50 451 25 451 12.5 451L0 451Z" fill="#ffe3df"></path><path d="M0 384L12.5 390C25 396 50 408 75 410.7C100 413.3 125 406.7 150 407C175 407.3 200 414.7 225 412.7C250 410.7 275 399.3 300 396.2C325 393 350 398 375 404.3C400 410.7 425 418.3 450 417.8C475 417.3 500 408.7 525 404.3C550 400 575 400 600 402.8C625 405.7 650 411.3 675 414.2C700 417 725 417 750 412.5C775 408 800 399 825 395.2C850 391.3 875 392.7 887.5 393.3L900 394L900 451L887.5 451C875 451 850 451 825 451C800 451 775 451 750 451C725 451 700 451 675 451C650 451 625 451 600 451C575 451 550 451 525 451C500 451 475 451 450 451C425 451 400 451 375 451C350 451 325 451 300 451C275 451 250 451 225 451C200 451 175 451 150 451C125 451 100 451 75 451C50 451 25 451 12.5 451L0 451Z" fill="#ffffff"></path></svg>