<svg id="visual" viewBox="0 0 1920 600" width="1920" height="600" xmlns="http://www.w3.org/2000/svg" xmlns:xlink="http://www.w3.org/1999/xlink" version="1.1"><rect x="0" y="0" width="1920" height="600" fill="#fff2f2"></rect><path d="M0 379L45.7 388.3C91.3 397.7 182.7 416.3 274.2 426.2C365.7 436 457.3 437 548.8 438.2C640.3 439.3 731.7 440.7 823 433.2C914.3 425.7 1005.7 409.3 1097 406.7C1188.3 404 1279.7 415 1371.2 418.7C1462.7 422.3 1554.3 418.7 1645.8 410.7C1737.3 402.7 1828.7 390.3 1874.3 384.2L1920 378L1920 601L1874.3 601C1828.7 601 1737.3 601 1645.8 601C1554.3 601 1462.7 601 1371.2 601C1279.7 601 1188.3 601 1097 601C1005.7 601 914.3 601 823 601C731.7 601 640.3 601 548.8 601C457.3 601 365.7 601 274.2 601C182.7 601 91.3 601 45.7 601L0 601Z" fill="#fa7268"></path><path d="M0 465L45.7 466.5C91.3 468 182.7 471 274.2 468C365.7 465 457.3 456 548.8 452.7C640.3 449.3 731.7 451.7 823 453.2C914.3 454.7 1005.7 455.3 1097 452.7C1188.3 450 1279.7 444 1371.2 440.7C1462.7 437.3 1554.3 436.7 1645.8 433.2C1737.3 429.7 1828.7 423.3 1874.3 420.2L1920 417L1920 601L1874.3 601C1828.7 601 1737.3 601 1645.8 601C1554.3 601 1462.7 601 1371.2 601C1279.7 601 1188.3 601 1097 601C1005.7 601 914.3 601 823 601C731.7 601 640.3 601 548.8 601C457.3 601 365.7 601 274.2 601C182.7 601 91.3 601 45.7 601L0 601Z" fill="#ef5f67"></path><path d="M0 507L45.7 497.7C91.3 488.3 182.7 469.7 274.2 465C365.7 460.3 457.3 469.7 548.8 472.8C640.3 476 731.7 473 823 470.2C914.3 467.3 1005.7 464.7 1097 460.7C1188.3 456.7 1279.7 451.3 1371.2 448C1462.7 444.7 1554.3 443.3 1645.8 445.7C1737.3 448 1828.7 454 1874.3 457L1920 460L1920 601L1874.3 601C1828.7 601 1737.3 601 1645.8 601C1554.3 601 1462.7 601 1371.2 601C1279.7 601 1188.3 601 1097 601C1005.7 601 914.3 601 823 601C731.7 601 640.3 601 548.8 601C457.3 601 365.7 601 274.2 601C182.7 601 91.3 601 45.7 601L0 601Z" fill="#e34c67"></path><path d="M0 515L45.7 510.7C91.3 506.3 182.7 497.7 274.2 494C365.7 490.3 457.3 491.7 548.8 495.7C640.3 499.7 731.7 506.3 823 508.3C914.3 510.3 1005.7 507.7 1097 507.7C1188.3 507.7 1279.7 510.3 1371.2 508.2C1462.7 506 1554.3 499 1645.8 498.7C1737.3 498.3 1828.7 504.7 1874.3 507.8L1920 511L1920 601L1874.3 601C1828.7 601 1737.3 601 1645.8 601C1554.3 601 1462.7 601 1371.2 601C1279.7 601 1188.3 601 1097 601C1005.7 601 914.3 601 823 601C731.7 601 640.3 601 548.8 601C457.3 601 365.7 601 274.2 601C182.7 601 91.3 601 45.7 601L0 601Z" fill="#d53867"></path><path d="M0 551L45.7 552.7C91.3 554.3 182.7 557.7 274.2 557.8C365.7 558 457.3 555 548.8 549.5C640.3 544 731.7 536 823 533.5C914.3 531 1005.7 534 1097 534.8C1188.3 535.7 1279.7 534.3 1371.2 535.3C1462.7 536.3 1554.3 539.7 1645.8 542.5C1737.3 545.3 1828.7 547.7 1874.3 548.8L1920 550L1920 601L1874.3 601C1828.7 601 1737.3 601 1645.8 601C1554.3 601 1462.7 601 1371.2 601C1279.7 601 1188.3 601 1097 601C1005.7 601 914.3 601 823 601C731.7 601 640.3 601 548.8 601C457.3 601 365.7 601 274.2 601C182.7 601 91.3 601 45.7 601L0 601Z" fill="#c62368"></path></svg>