<svg id="visual" viewBox="0 0 960 300" width="960" height="300" xmlns="http://www.w3.org/2000/svg" xmlns:xlink="http://www.w3.org/1999/xlink" version="1.1"><rect x="0" y="0" width="960" height="300" fill="#ffffff"></rect><path d="M0 82L8.8 95.5C17.7 109 35.3 136 53.2 139.5C71 143 89 123 106.8 124.5C124.7 126 142.3 149 160 149.3C177.7 149.7 195.3 127.3 213.2 119.7C231 112 249 119 266.8 118.5C284.7 118 302.3 110 320 109.5C337.7 109 355.3 116 373.2 117.8C391 119.7 409 116.3 426.8 108.8C444.7 101.3 462.3 89.7 480 85.2C497.7 80.7 515.3 83.3 533.2 91.3C551 99.3 569 112.7 586.8 113.5C604.7 114.3 622.3 102.7 640 108C657.7 113.3 675.3 135.7 693.2 135.5C711 135.3 729 112.7 746.8 114.7C764.7 116.7 782.3 143.3 800 146C817.7 148.7 835.3 127.3 853.2 124.7C871 122 889 138 906.8 142.3C924.7 146.7 942.3 139.3 951.2 135.7L960 132L960 301L951.2 301C942.3 301 924.7 301 906.8 301C889 301 871 301 853.2 301C835.3 301 817.7 301 800 301C782.3 301 764.7 301 746.8 301C729 301 711 301 693.2 301C675.3 301 657.7 301 640 301C622.3 301 604.7 301 586.8 301C569 301 551 301 533.2 301C515.3 301 497.7 301 480 301C462.3 301 444.7 301 426.8 301C409 301 391 301 373.2 301C355.3 301 337.7 301 320 301C302.3 301 284.7 301 266.8 301C249 301 231 301 213.2 301C195.3 301 177.7 301 160 301C142.3 301 124.7 301 106.8 301C89 301 71 301 53.2 301C35.3 301 17.7 301 8.8 301L0 301Z" fill="#1f447c"></path><path d="M0 163L8.8 156C17.7 149 35.3 135 53.2 126.8C71 118.7 89 116.3 106.8 121.2C124.7 126 142.3 138 160 147.3C177.7 156.7 195.3 163.3 213.2 161C231 158.7 249 147.3 266.8 141.3C284.7 135.3 302.3 134.7 320 133C337.7 131.3 355.3 128.7 373.2 128.3C391 128 409 130 426.8 138.7C444.7 147.3 462.3 162.7 480 172.8C497.7 183 515.3 188 533.2 190.5C551 193 569 193 586.8 192C604.7 191 622.3 189 640 180.7C657.7 172.3 675.3 157.7 693.2 147.7C711 137.7 729 132.3 746.8 131C764.7 129.7 782.3 132.3 800 141C817.7 149.7 835.3 164.3 853.2 174.2C871 184 889 189 906.8 182.2C924.7 175.3 942.3 156.7 951.2 147.3L960 138L960 301L951.2 301C942.3 301 924.7 301 906.8 301C889 301 871 301 853.2 301C835.3 301 817.7 301 800 301C782.3 301 764.7 301 746.8 301C729 301 711 301 693.2 301C675.3 301 657.7 301 640 301C622.3 301 604.7 301 586.8 301C569 301 551 301 533.2 301C515.3 301 497.7 301 480 301C462.3 301 444.7 301 426.8 301C409 301 391 301 373.2 301C355.3 301 337.7 301 320 301C302.3 301 284.7 301 266.8 301C249 301 231 301 213.2 301C195.3 301 177.7 301 160 301C142.3 301 124.7 301 106.8 301C89 301 71 301 53.2 301C35.3 301 17.7 301 8.8 301L0 301Z" fill="#526595"></path><path d="M0 178L8.8 181C17.7 184 35.3 190 53.2 188.7C71 187.3 89 178.7 106.8 173.8C124.7 169 142.3 168 160 172C177.7 176 195.3 185 213.2 183.3C231 181.7 249 169.3 266.8 168C284.7 166.7 302.3 176.3 320 182.2C337.7 188 355.3 190 373.2 191.8C391 193.7 409 195.3 426.8 195.3C444.7 195.3 462.3 193.7 480 192.3C497.7 191 515.3 190 533.2 187.8C551 185.7 569 182.3 586.8 181.7C604.7 181 622.3 183 640 178.7C657.7 174.3 675.3 163.7 693.2 159.7C711 155.7 729 158.3 746.8 164.8C764.7 171.3 782.3 181.7 800 188.7C817.7 195.7 835.3 199.3 853.2 201.7C871 204 889 205 906.8 196C924.7 187 942.3 168 951.2 158.5L960 149L960 301L951.2 301C942.3 301 924.7 301 906.8 301C889 301 871 301 853.2 301C835.3 301 817.7 301 800 301C782.3 301 764.7 301 746.8 301C729 301 711 301 693.2 301C675.3 301 657.7 301 640 301C622.3 301 604.7 301 586.8 301C569 301 551 301 533.2 301C515.3 301 497.7 301 480 301C462.3 301 444.7 301 426.8 301C409 301 391 301 373.2 301C355.3 301 337.7 301 320 301C302.3 301 284.7 301 266.8 301C249 301 231 301 213.2 301C195.3 301 177.7 301 160 301C142.3 301 124.7 301 106.8 301C89 301 71 301 53.2 301C35.3 301 17.7 301 8.8 301L0 301Z" fill="#7e89af"></path><path d="M0 229L8.8 224.8C17.7 220.7 35.3 212.3 53.2 206.3C71 200.3 89 196.7 106.8 194C124.7 191.3 142.3 189.7 160 187.3C177.7 185 195.3 182 213.2 183.7C231 185.3 249 191.7 266.8 200.2C284.7 208.7 302.3 219.3 320 220.7C337.7 222 355.3 214 373.2 213.2C391 212.3 409 218.7 426.8 223.3C444.7 228 462.3 231 480 232.8C497.7 234.7 515.3 235.3 533.2 228.3C551 221.3 569 206.7 586.8 197.3C604.7 188 622.3 184 640 187.8C657.7 191.7 675.3 203.3 693.2 206.7C711 210 729 205 746.8 202C764.7 199 782.3 198 800 194.2C817.7 190.3 835.3 183.7 853.2 185.5C871 187.3 889 197.7 906.8 202.5C924.7 207.3 942.3 206.7 951.2 206.3L960 206L960 301L951.2 301C942.3 301 924.7 301 906.8 301C889 301 871 301 853.2 301C835.3 301 817.7 301 800 301C782.3 301 764.7 301 746.8 301C729 301 711 301 693.2 301C675.3 301 657.7 301 640 301C622.3 301 604.7 301 586.8 301C569 301 551 301 533.2 301C515.3 301 497.7 301 480 301C462.3 301 444.7 301 426.8 301C409 301 391 301 373.2 301C355.3 301 337.7 301 320 301C302.3 301 284.7 301 266.8 301C249 301 231 301 213.2 301C195.3 301 177.7 301 160 301C142.3 301 124.7 301 106.8 301C89 301 71 301 53.2 301C35.3 301 17.7 301 8.8 301L0 301Z" fill="#a8afc9"></path><path d="M0 216L8.8 217.3C17.7 218.7 35.3 221.3 53.2 225.5C71 229.7 89 235.3 106.8 236.2C124.7 237 142.3 233 160 228.5C177.7 224 195.3 219 213.2 222C231 225 249 236 266.8 235.8C284.7 235.7 302.3 224.3 320 225C337.7 225.7 355.3 238.3 373.2 237.8C391 237.3 409 223.7 426.8 223.2C444.7 222.7 462.3 235.3 480 240.3C497.7 245.3 515.3 242.7 533.2 242C551 241.3 569 242.7 586.8 239C604.7 235.3 622.3 226.7 640 226.8C657.7 227 675.3 236 693.2 240.8C711 245.7 729 246.3 746.8 243.8C764.7 241.3 782.3 235.7 800 233.7C817.7 231.7 835.3 233.3 853.2 235.8C871 238.3 889 241.7 906.8 239.3C924.7 237 942.3 229 951.2 225L960 221L960 301L951.2 301C942.3 301 924.7 301 906.8 301C889 301 871 301 853.2 301C835.3 301 817.7 301 800 301C782.3 301 764.7 301 746.8 301C729 301 711 301 693.2 301C675.3 301 657.7 301 640 301C622.3 301 604.7 301 586.8 301C569 301 551 301 533.2 301C515.3 301 497.7 301 480 301C462.3 301 444.7 301 426.8 301C409 301 391 301 373.2 301C355.3 301 337.7 301 320 301C302.3 301 284.7 301 266.8 301C249 301 231 301 213.2 301C195.3 301 177.7 301 160 301C142.3 301 124.7 301 106.8 301C89 301 71 301 53.2 301C35.3 301 17.7 301 8.8 301L0 301Z" fill="#d3d6e4"></path><path d="M0 267L8.8 266.3C17.7 265.7 35.3 264.3 53.2 265C71 265.7 89 268.3 106.8 266.8C124.7 265.3 142.3 259.7 160 257C177.7 254.3 195.3 254.7 213.2 253C231 251.3 249 247.7 266.8 246.8C284.7 246 302.3 248 320 252.5C337.7 257 355.3 264 373.2 263.2C391 262.3 409 253.7 426.8 250.8C444.7 248 462.3 251 480 250.8C497.7 250.7 515.3 247.3 533.2 250C551 252.7 569 261.3 586.8 266.8C604.7 272.3 622.3 274.7 640 270.2C657.7 265.7 675.3 254.3 693.2 252.7C711 251 729 259 746.8 260.3C764.7 261.7 782.3 256.3 800 256.8C817.7 257.3 835.3 263.7 853.2 266.2C871 268.7 889 267.3 906.8 262.7C924.7 258 942.3 250 951.2 246L960 242L960 301L951.2 301C942.3 301 924.7 301 906.8 301C889 301 871 301 853.2 301C835.3 301 817.7 301 800 301C782.3 301 764.7 301 746.8 301C729 301 711 301 693.2 301C675.3 301 657.7 301 640 301C622.3 301 604.7 301 586.8 301C569 301 551 301 533.2 301C515.3 301 497.7 301 480 301C462.3 301 444.7 301 426.8 301C409 301 391 301 373.2 301C355.3 301 337.7 301 320 301C302.3 301 284.7 301 266.8 301C249 301 231 301 213.2 301C195.3 301 177.7 301 160 301C142.3 301 124.7 301 106.8 301C89 301 71 301 53.2 301C35.3 301 17.7 301 8.8 301L0 301Z" fill="#ffffff"></path></svg>