<svg id="visual" viewBox="0 0 1920 1080" width="1920" height="1080" xmlns="http://www.w3.org/2000/svg" xmlns:xlink="http://www.w3.org/1999/xlink" version="1.1"><rect x="0" y="0" width="1920" height="1080" fill="#171717"></rect><path d="M0 875L24.7 878C49.3 881 98.7 887 147.8 879.3C197 871.7 246 850.3 295.2 851.2C344.3 852 393.7 875 443 880.2C492.3 885.3 541.7 872.7 590.8 865.2C640 857.7 689 855.3 738.2 864.2C787.3 873 836.7 893 886 893.5C935.3 894 984.7 875 1034 868.3C1083.3 861.7 1132.7 867.3 1181.8 866.8C1231 866.3 1280 859.7 1329.2 868C1378.3 876.3 1427.7 899.7 1477 895C1526.3 890.3 1575.7 857.7 1624.8 857.7C1674 857.7 1723 890.3 1772.2 905C1821.3 919.7 1870.7 916.3 1895.3 914.7L1920 913L1920 1081L1895.3 1081C1870.7 1081 1821.3 1081 1772.2 1081C1723 1081 1674 1081 1624.8 1081C1575.7 1081 1526.3 1081 1477 1081C1427.7 1081 1378.3 1081 1329.2 1081C1280 1081 1231 1081 1181.8 1081C1132.7 1081 1083.3 1081 1034 1081C984.7 1081 935.3 1081 886 1081C836.7 1081 787.3 1081 738.2 1081C689 1081 640 1081 590.8 1081C541.7 1081 492.3 1081 443 1081C393.7 1081 344.3 1081 295.2 1081C246 1081 197 1081 147.8 1081C98.7 1081 49.3 1081 24.7 1081L0 1081Z" fill="#171717"></path><path d="M0 908L24.7 907.3C49.3 906.7 98.7 905.3 147.8 906.3C197 907.3 246 910.7 295.2 909.7C344.3 908.7 393.7 903.3 443 898.2C492.3 893 541.7 888 590.8 895.5C640 903 689 923 738.2 921.8C787.3 920.7 836.7 898.3 886 899.8C935.3 901.3 984.7 926.7 1034 936.7C1083.3 946.7 1132.7 941.3 1181.8 941.3C1231 941.3 1280 946.7 1329.2 937.7C1378.3 928.7 1427.7 905.3 1477 892.3C1526.3 879.3 1575.7 876.7 1624.8 884.8C1674 893 1723 912 1772.2 919.8C1821.3 927.7 1870.7 924.3 1895.3 922.7L1920 921L1920 1081L1895.3 1081C1870.7 1081 1821.3 1081 1772.2 1081C1723 1081 1674 1081 1624.8 1081C1575.7 1081 1526.3 1081 1477 1081C1427.7 1081 1378.3 1081 1329.2 1081C1280 1081 1231 1081 1181.8 1081C1132.7 1081 1083.3 1081 1034 1081C984.7 1081 935.3 1081 886 1081C836.7 1081 787.3 1081 738.2 1081C689 1081 640 1081 590.8 1081C541.7 1081 492.3 1081 443 1081C393.7 1081 344.3 1081 295.2 1081C246 1081 197 1081 147.8 1081C98.7 1081 49.3 1081 24.7 1081L0 1081Z" fill="#494949"></path><path d="M0 922L24.7 932.3C49.3 942.7 98.7 963.3 147.8 965.3C197 967.3 246 950.7 295.2 947.5C344.3 944.3 393.7 954.7 443 960.7C492.3 966.7 541.7 968.3 590.8 959.2C640 950 689 930 738.2 928.5C787.3 927 836.7 944 886 945.2C935.3 946.3 984.7 931.7 1034 936.5C1083.3 941.3 1132.7 965.7 1181.8 966.2C1231 966.7 1280 943.3 1329.2 943.5C1378.3 943.7 1427.7 967.3 1477 977.3C1526.3 987.3 1575.7 983.7 1624.8 973.3C1674 963 1723 946 1772.2 939.3C1821.3 932.7 1870.7 936.3 1895.3 938.2L1920 940L1920 1081L1895.3 1081C1870.7 1081 1821.3 1081 1772.2 1081C1723 1081 1674 1081 1624.8 1081C1575.7 1081 1526.3 1081 1477 1081C1427.7 1081 1378.3 1081 1329.2 1081C1280 1081 1231 1081 1181.8 1081C1132.7 1081 1083.3 1081 1034 1081C984.7 1081 935.3 1081 886 1081C836.7 1081 787.3 1081 738.2 1081C689 1081 640 1081 590.8 1081C541.7 1081 492.3 1081 443 1081C393.7 1081 344.3 1081 295.2 1081C246 1081 197 1081 147.8 1081C98.7 1081 49.3 1081 24.7 1081L0 1081Z" fill="#818181"></path><path d="M0 991L24.7 988.5C49.3 986 98.7 981 147.8 975C197 969 246 962 295.2 969.5C344.3 977 393.7 999 443 1002.7C492.3 1006.3 541.7 991.7 590.8 981.5C640 971.3 689 965.7 738.2 972.2C787.3 978.7 836.7 997.3 886 999C935.3 1000.7 984.7 985.3 1034 983.8C1083.3 982.3 1132.7 994.7 1181.8 1002C1231 1009.3 1280 1011.7 1329.2 1006.3C1378.3 1001 1427.7 988 1477 986C1526.3 984 1575.7 993 1624.8 992.8C1674 992.7 1723 983.3 1772.2 984.7C1821.3 986 1870.7 998 1895.3 1004L1920 1010L1920 1081L1895.3 1081C1870.7 1081 1821.3 1081 1772.2 1081C1723 1081 1674 1081 1624.8 1081C1575.7 1081 1526.3 1081 1477 1081C1427.7 1081 1378.3 1081 1329.2 1081C1280 1081 1231 1081 1181.8 1081C1132.7 1081 1083.3 1081 1034 1081C984.7 1081 935.3 1081 886 1081C836.7 1081 787.3 1081 738.2 1081C689 1081 640 1081 590.8 1081C541.7 1081 492.3 1081 443 1081C393.7 1081 344.3 1081 295.2 1081C246 1081 197 1081 147.8 1081C98.7 1081 49.3 1081 24.7 1081L0 1081Z" fill="#bebebe"></path><path d="M0 1015L24.7 1019.2C49.3 1023.3 98.7 1031.7 147.8 1032.2C197 1032.7 246 1025.3 295.2 1025.8C344.3 1026.3 393.7 1034.7 443 1032C492.3 1029.3 541.7 1015.7 590.8 1008.5C640 1001.3 689 1000.7 738.2 1004.2C787.3 1007.7 836.7 1015.3 886 1017.7C935.3 1020 984.7 1017 1034 1017.5C1083.3 1018 1132.7 1022 1181.8 1027.8C1231 1033.7 1280 1041.3 1329.2 1039.3C1378.3 1037.3 1427.7 1025.7 1477 1024.3C1526.3 1023 1575.7 1032 1624.8 1030.5C1674 1029 1723 1017 1772.2 1012C1821.3 1007 1870.7 1009 1895.3 1010L1920 1011L1920 1081L1895.3 1081C1870.7 1081 1821.3 1081 1772.2 1081C1723 1081 1674 1081 1624.8 1081C1575.7 1081 1526.3 1081 1477 1081C1427.7 1081 1378.3 1081 1329.2 1081C1280 1081 1231 1081 1181.8 1081C1132.7 1081 1083.3 1081 1034 1081C984.7 1081 935.3 1081 886 1081C836.7 1081 787.3 1081 738.2 1081C689 1081 640 1081 590.8 1081C541.7 1081 492.3 1081 443 1081C393.7 1081 344.3 1081 295.2 1081C246 1081 197 1081 147.8 1081C98.7 1081 49.3 1081 24.7 1081L0 1081Z" fill="#ffffff"></path></svg>