<svg id="visual" viewBox="0 0 1920 1080" width="1920" height="1080" xmlns="http://www.w3.org/2000/svg" xmlns:xlink="http://www.w3.org/1999/xlink" version="1.1"><rect x="0" y="0" width="1920" height="1080" fill="#171717"></rect><path d="M0 871L21.3 866.7C42.7 862.3 85.3 853.7 128 848.2C170.7 842.7 213.3 840.3 256 846C298.7 851.7 341.3 865.3 384 870.5C426.7 875.7 469.3 872.3 512 875.2C554.7 878 597.3 887 640 886.8C682.7 886.7 725.3 877.3 768 870C810.7 862.7 853.3 857.3 896 852.3C938.7 847.3 981.3 842.7 1024 835.3C1066.7 828 1109.3 818 1152 819C1194.7 820 1237.3 832 1280 843C1322.7 854 1365.3 864 1408 872.7C1450.7 881.3 1493.3 888.7 1536 879.5C1578.7 870.3 1621.3 844.7 1664 837.7C1706.7 830.7 1749.3 842.3 1792 844.3C1834.7 846.3 1877.3 838.7 1898.7 834.8L1920 831L1920 1081L1898.7 1081C1877.3 1081 1834.7 1081 1792 1081C1749.3 1081 1706.7 1081 1664 1081C1621.3 1081 1578.7 1081 1536 1081C1493.3 1081 1450.7 1081 1408 1081C1365.3 1081 1322.7 1081 1280 1081C1237.3 1081 1194.7 1081 1152 1081C1109.3 1081 1066.7 1081 1024 1081C981.3 1081 938.7 1081 896 1081C853.3 1081 810.7 1081 768 1081C725.3 1081 682.7 1081 640 1081C597.3 1081 554.7 1081 512 1081C469.3 1081 426.7 1081 384 1081C341.3 1081 298.7 1081 256 1081C213.3 1081 170.7 1081 128 1081C85.3 1081 42.7 1081 21.3 1081L0 1081Z" fill="#171717"></path><path d="M0 908L21.3 906.8C42.7 905.7 85.3 903.3 128 903.3C170.7 903.3 213.3 905.7 256 905.8C298.7 906 341.3 904 384 894.7C426.7 885.3 469.3 868.7 512 856.7C554.7 844.7 597.3 837.3 640 849.5C682.7 861.7 725.3 893.3 768 895C810.7 896.7 853.3 868.3 896 863.3C938.7 858.3 981.3 876.7 1024 875.2C1066.7 873.7 1109.3 852.3 1152 843.8C1194.7 835.3 1237.3 839.7 1280 849.5C1322.7 859.3 1365.3 874.7 1408 876.5C1450.7 878.3 1493.3 866.7 1536 864.8C1578.7 863 1621.3 871 1664 869.8C1706.7 868.7 1749.3 858.3 1792 850.8C1834.7 843.3 1877.3 838.7 1898.7 836.3L1920 834L1920 1081L1898.7 1081C1877.3 1081 1834.7 1081 1792 1081C1749.3 1081 1706.7 1081 1664 1081C1621.3 1081 1578.7 1081 1536 1081C1493.3 1081 1450.7 1081 1408 1081C1365.3 1081 1322.7 1081 1280 1081C1237.3 1081 1194.7 1081 1152 1081C1109.3 1081 1066.7 1081 1024 1081C981.3 1081 938.7 1081 896 1081C853.3 1081 810.7 1081 768 1081C725.3 1081 682.7 1081 640 1081C597.3 1081 554.7 1081 512 1081C469.3 1081 426.7 1081 384 1081C341.3 1081 298.7 1081 256 1081C213.3 1081 170.7 1081 128 1081C85.3 1081 42.7 1081 21.3 1081L0 1081Z" fill="#373737"></path><path d="M0 941L21.3 928.5C42.7 916 85.3 891 128 884.5C170.7 878 213.3 890 256 903.8C298.7 917.7 341.3 933.3 384 931.2C426.7 929 469.3 909 512 907.8C554.7 906.7 597.3 924.3 640 924.5C682.7 924.7 725.3 907.3 768 903.7C810.7 900 853.3 910 896 918.5C938.7 927 981.3 934 1024 934.2C1066.7 934.3 1109.3 927.7 1152 923C1194.7 918.3 1237.3 915.7 1280 908.8C1322.7 902 1365.3 891 1408 897.2C1450.7 903.3 1493.3 926.7 1536 932.5C1578.7 938.3 1621.3 926.7 1664 922.5C1706.7 918.3 1749.3 921.7 1792 920.2C1834.7 918.7 1877.3 912.3 1898.7 909.2L1920 906L1920 1081L1898.7 1081C1877.3 1081 1834.7 1081 1792 1081C1749.3 1081 1706.7 1081 1664 1081C1621.3 1081 1578.7 1081 1536 1081C1493.3 1081 1450.7 1081 1408 1081C1365.3 1081 1322.7 1081 1280 1081C1237.3 1081 1194.7 1081 1152 1081C1109.3 1081 1066.7 1081 1024 1081C981.3 1081 938.7 1081 896 1081C853.3 1081 810.7 1081 768 1081C725.3 1081 682.7 1081 640 1081C597.3 1081 554.7 1081 512 1081C469.3 1081 426.7 1081 384 1081C341.3 1081 298.7 1081 256 1081C213.3 1081 170.7 1081 128 1081C85.3 1081 42.7 1081 21.3 1081L0 1081Z" fill="#5b5b5b"></path><path d="M0 924L21.3 926.5C42.7 929 85.3 934 128 941.3C170.7 948.7 213.3 958.3 256 959.3C298.7 960.3 341.3 952.7 384 950.5C426.7 948.3 469.3 951.7 512 950.5C554.7 949.3 597.3 943.7 640 942.3C682.7 941 725.3 944 768 942.5C810.7 941 853.3 935 896 937.7C938.7 940.3 981.3 951.7 1024 958.7C1066.7 965.7 1109.3 968.3 1152 970.7C1194.7 973 1237.3 975 1280 975.5C1322.7 976 1365.3 975 1408 966C1450.7 957 1493.3 940 1536 938.3C1578.7 936.7 1621.3 950.3 1664 957.8C1706.7 965.3 1749.3 966.7 1792 959.3C1834.7 952 1877.3 936 1898.7 928L1920 920L1920 1081L1898.7 1081C1877.3 1081 1834.7 1081 1792 1081C1749.3 1081 1706.7 1081 1664 1081C1621.3 1081 1578.7 1081 1536 1081C1493.3 1081 1450.7 1081 1408 1081C1365.3 1081 1322.7 1081 1280 1081C1237.3 1081 1194.7 1081 1152 1081C1109.3 1081 1066.7 1081 1024 1081C981.3 1081 938.7 1081 896 1081C853.3 1081 810.7 1081 768 1081C725.3 1081 682.7 1081 640 1081C597.3 1081 554.7 1081 512 1081C469.3 1081 426.7 1081 384 1081C341.3 1081 298.7 1081 256 1081C213.3 1081 170.7 1081 128 1081C85.3 1081 42.7 1081 21.3 1081L0 1081Z" fill="#818181"></path><path d="M0 944L21.3 950C42.7 956 85.3 968 128 975.2C170.7 982.3 213.3 984.7 256 979.7C298.7 974.7 341.3 962.3 384 962.7C426.7 963 469.3 976 512 976.2C554.7 976.3 597.3 963.7 640 966.7C682.7 969.7 725.3 988.3 768 996C810.7 1003.7 853.3 1000.3 896 990.2C938.7 980 981.3 963 1024 958.8C1066.7 954.7 1109.3 963.3 1152 970.8C1194.7 978.3 1237.3 984.7 1280 980.8C1322.7 977 1365.3 963 1408 964.2C1450.7 965.3 1493.3 981.7 1536 987.3C1578.7 993 1621.3 988 1664 983.2C1706.7 978.3 1749.3 973.7 1792 975.7C1834.7 977.7 1877.3 986.3 1898.7 990.7L1920 995L1920 1081L1898.7 1081C1877.3 1081 1834.7 1081 1792 1081C1749.3 1081 1706.7 1081 1664 1081C1621.3 1081 1578.7 1081 1536 1081C1493.3 1081 1450.7 1081 1408 1081C1365.3 1081 1322.7 1081 1280 1081C1237.3 1081 1194.7 1081 1152 1081C1109.3 1081 1066.7 1081 1024 1081C981.3 1081 938.7 1081 896 1081C853.3 1081 810.7 1081 768 1081C725.3 1081 682.7 1081 640 1081C597.3 1081 554.7 1081 512 1081C469.3 1081 426.7 1081 384 1081C341.3 1081 298.7 1081 256 1081C213.3 1081 170.7 1081 128 1081C85.3 1081 42.7 1081 21.3 1081L0 1081Z" fill="#a9a9a9"></path><path d="M0 979L21.3 979.8C42.7 980.7 85.3 982.3 128 990.5C170.7 998.7 213.3 1013.3 256 1017.8C298.7 1022.3 341.3 1016.7 384 1014.7C426.7 1012.7 469.3 1014.3 512 1009.2C554.7 1004 597.3 992 640 990.3C682.7 988.7 725.3 997.3 768 1000.5C810.7 1003.7 853.3 1001.3 896 1002.7C938.7 1004 981.3 1009 1024 1007C1066.7 1005 1109.3 996 1152 996.2C1194.7 996.3 1237.3 1005.7 1280 1010.3C1322.7 1015 1365.3 1015 1408 1009.3C1450.7 1003.7 1493.3 992.3 1536 987C1578.7 981.7 1621.3 982.3 1664 987.5C1706.7 992.7 1749.3 1002.3 1792 1004.2C1834.7 1006 1877.3 1000 1898.7 997L1920 994L1920 1081L1898.7 1081C1877.3 1081 1834.7 1081 1792 1081C1749.3 1081 1706.7 1081 1664 1081C1621.3 1081 1578.7 1081 1536 1081C1493.3 1081 1450.7 1081 1408 1081C1365.3 1081 1322.7 1081 1280 1081C1237.3 1081 1194.7 1081 1152 1081C1109.3 1081 1066.7 1081 1024 1081C981.3 1081 938.7 1081 896 1081C853.3 1081 810.7 1081 768 1081C725.3 1081 682.7 1081 640 1081C597.3 1081 554.7 1081 512 1081C469.3 1081 426.7 1081 384 1081C341.3 1081 298.7 1081 256 1081C213.3 1081 170.7 1081 128 1081C85.3 1081 42.7 1081 21.3 1081L0 1081Z" fill="#d3d3d3"></path><path d="M0 1020L21.3 1020.2C42.7 1020.3 85.3 1020.7 128 1025.8C170.7 1031 213.3 1041 256 1040.5C298.7 1040 341.3 1029 384 1025.7C426.7 1022.3 469.3 1026.7 512 1027.8C554.7 1029 597.3 1027 640 1027C682.7 1027 725.3 1029 768 1030.3C810.7 1031.7 853.3 1032.3 896 1030.5C938.7 1028.7 981.3 1024.3 1024 1021.8C1066.7 1019.3 1109.3 1018.7 1152 1024.3C1194.7 1030 1237.3 1042 1280 1044.3C1322.7 1046.7 1365.3 1039.3 1408 1035.2C1450.7 1031 1493.3 1030 1536 1027C1578.7 1024 1621.3 1019 1664 1019.8C1706.7 1020.7 1749.3 1027.3 1792 1032.5C1834.7 1037.7 1877.3 1041.3 1898.7 1043.2L1920 1045L1920 1081L1898.7 1081C1877.3 1081 1834.7 1081 1792 1081C1749.3 1081 1706.7 1081 1664 1081C1621.3 1081 1578.7 1081 1536 1081C1493.3 1081 1450.7 1081 1408 1081C1365.3 1081 1322.7 1081 1280 1081C1237.3 1081 1194.7 1081 1152 1081C1109.3 1081 1066.7 1081 1024 1081C981.3 1081 938.7 1081 896 1081C853.3 1081 810.7 1081 768 1081C725.3 1081 682.7 1081 640 1081C597.3 1081 554.7 1081 512 1081C469.3 1081 426.7 1081 384 1081C341.3 1081 298.7 1081 256 1081C213.3 1081 170.7 1081 128 1081C85.3 1081 42.7 1081 21.3 1081L0 1081Z" fill="#ffffff"></path></svg>