<svg id="visual" viewBox="0 0 900 300" width="900" height="300" xmlns="http://www.w3.org/2000/svg" xmlns:xlink="http://www.w3.org/1999/xlink" version="1.1"><rect x="0" y="0" width="900" height="300" fill="#ffffff"></rect><path d="M0 175L21.5 178.3C43 181.7 86 188.3 128.8 195.3C171.7 202.3 214.3 209.7 257.2 213.2C300 216.7 343 216.3 385.8 217C428.7 217.7 471.3 219.3 514.2 213.3C557 207.3 600 193.7 642.8 192.3C685.7 191 728.3 202 771.2 205.8C814 209.7 857 206.3 878.5 204.7L900 203L900 301L878.5 301C857 301 814 301 771.2 301C728.3 301 685.7 301 642.8 301C600 301 557 301 514.2 301C471.3 301 428.7 301 385.8 301C343 301 300 301 257.2 301C214.3 301 171.7 301 128.8 301C86 301 43 301 21.5 301L0 301Z" fill="#8bffe6"></path><path d="M0 211L21.5 211C43 211 86 211 128.8 214.7C171.7 218.3 214.3 225.7 257.2 225.8C300 226 343 219 385.8 217.2C428.7 215.3 471.3 218.7 514.2 222.3C557 226 600 230 642.8 231.2C685.7 232.3 728.3 230.7 771.2 224.8C814 219 857 209 878.5 204L900 199L900 301L878.5 301C857 301 814 301 771.2 301C728.3 301 685.7 301 642.8 301C600 301 557 301 514.2 301C471.3 301 428.7 301 385.8 301C343 301 300 301 257.2 301C214.3 301 171.7 301 128.8 301C86 301 43 301 21.5 301L0 301Z" fill="#4fbda6"></path><path d="M0 250L21.5 248.7C43 247.3 86 244.7 128.8 244.5C171.7 244.3 214.3 246.7 257.2 244.7C300 242.7 343 236.3 385.8 234.2C428.7 232 471.3 234 514.2 237.8C557 241.7 600 247.3 642.8 245.5C685.7 243.7 728.3 234.3 771.2 234C814 233.7 857 242.3 878.5 246.7L900 251L900 301L878.5 301C857 301 814 301 771.2 301C728.3 301 685.7 301 642.8 301C600 301 557 301 514.2 301C471.3 301 428.7 301 385.8 301C343 301 300 301 257.2 301C214.3 301 171.7 301 128.8 301C86 301 43 301 21.5 301L0 301Z" fill="#007e6a"></path><path d="M0 247L21.5 246C43 245 86 243 128.8 246.5C171.7 250 214.3 259 257.2 262.5C300 266 343 264 385.8 261.3C428.7 258.7 471.3 255.3 514.2 252.2C557 249 600 246 642.8 247.5C685.7 249 728.3 255 771.2 256.5C814 258 857 255 878.5 253.5L900 252L900 301L878.5 301C857 301 814 301 771.2 301C728.3 301 685.7 301 642.8 301C600 301 557 301 514.2 301C471.3 301 428.7 301 385.8 301C343 301 300 301 257.2 301C214.3 301 171.7 301 128.8 301C86 301 43 301 21.5 301L0 301Z" fill="#004433"></path><path d="M0 265L21.5 267.3C43 269.7 86 274.3 128.8 276C171.7 277.7 214.3 276.3 257.2 274.5C300 272.7 343 270.3 385.8 270.7C428.7 271 471.3 274 514.2 274C557 274 600 271 642.8 270C685.7 269 728.3 270 771.2 271.3C814 272.7 857 274.3 878.5 275.2L900 276L900 301L878.5 301C857 301 814 301 771.2 301C728.3 301 685.7 301 642.8 301C600 301 557 301 514.2 301C471.3 301 428.7 301 385.8 301C343 301 300 301 257.2 301C214.3 301 171.7 301 128.8 301C86 301 43 301 21.5 301L0 301Z" fill="#000000"></path></svg>