<svg id="visual" viewBox="0 0 1920 1080" width="1920" height="1080" xmlns="http://www.w3.org/2000/svg" xmlns:xlink="http://www.w3.org/1999/xlink" version="1.1"><rect x="0" y="0" width="1920" height="1080" fill="#FFFFFF"></rect><path d="M0 635L45.7 646.8C91.3 658.7 182.7 682.3 274.2 699C365.7 715.7 457.3 725.3 548.8 735.7C640.3 746 731.7 757 823 749.2C914.3 741.3 1005.7 714.7 1097 706C1188.3 697.3 1279.7 706.7 1371.2 715.5C1462.7 724.3 1554.3 732.7 1645.8 748C1737.3 763.3 1828.7 785.7 1874.3 796.8L1920 808L1920 1081L1874.3 1081C1828.7 1081 1737.3 1081 1645.8 1081C1554.3 1081 1462.7 1081 1371.2 1081C1279.7 1081 1188.3 1081 1097 1081C1005.7 1081 914.3 1081 823 1081C731.7 1081 640.3 1081 548.8 1081C457.3 1081 365.7 1081 274.2 1081C182.7 1081 91.3 1081 45.7 1081L0 1081Z" fill="#5ad3b9"></path><path d="M0 787L45.7 781C91.3 775 182.7 763 274.2 752C365.7 741 457.3 731 548.8 729.5C640.3 728 731.7 735 823 758.5C914.3 782 1005.7 822 1097 840C1188.3 858 1279.7 854 1371.2 832C1462.7 810 1554.3 770 1645.8 756.8C1737.3 743.7 1828.7 757.3 1874.3 764.2L1920 771L1920 1081L1874.3 1081C1828.7 1081 1737.3 1081 1645.8 1081C1554.3 1081 1462.7 1081 1371.2 1081C1279.7 1081 1188.3 1081 1097 1081C1005.7 1081 914.3 1081 823 1081C731.7 1081 640.3 1081 548.8 1081C457.3 1081 365.7 1081 274.2 1081C182.7 1081 91.3 1081 45.7 1081L0 1081Z" fill="#4b9f8c"></path><path d="M0 873L45.7 866.3C91.3 859.7 182.7 846.3 274.2 833.3C365.7 820.3 457.3 807.7 548.8 821.5C640.3 835.3 731.7 875.7 823 889.2C914.3 902.7 1005.7 889.3 1097 870.2C1188.3 851 1279.7 826 1371.2 824.5C1462.7 823 1554.3 845 1645.8 859C1737.3 873 1828.7 879 1874.3 882L1920 885L1920 1081L1874.3 1081C1828.7 1081 1737.3 1081 1645.8 1081C1554.3 1081 1462.7 1081 1371.2 1081C1279.7 1081 1188.3 1081 1097 1081C1005.7 1081 914.3 1081 823 1081C731.7 1081 640.3 1081 548.8 1081C457.3 1081 365.7 1081 274.2 1081C182.7 1081 91.3 1081 45.7 1081L0 1081Z" fill="#3b6e62"></path><path d="M0 904L45.7 901.5C91.3 899 182.7 894 274.2 903C365.7 912 457.3 935 548.8 941.3C640.3 947.7 731.7 937.3 823 933.2C914.3 929 1005.7 931 1097 937.3C1188.3 943.7 1279.7 954.3 1371.2 947.8C1462.7 941.3 1554.3 917.7 1645.8 916.2C1737.3 914.7 1828.7 935.3 1874.3 945.7L1920 956L1920 1081L1874.3 1081C1828.7 1081 1737.3 1081 1645.8 1081C1554.3 1081 1462.7 1081 1371.2 1081C1279.7 1081 1188.3 1081 1097 1081C1005.7 1081 914.3 1081 823 1081C731.7 1081 640.3 1081 548.8 1081C457.3 1081 365.7 1081 274.2 1081C182.7 1081 91.3 1081 45.7 1081L0 1081Z" fill="#2a403a"></path><path d="M0 1012L45.7 1007.3C91.3 1002.7 182.7 993.3 274.2 983.7C365.7 974 457.3 964 548.8 960C640.3 956 731.7 958 823 964.3C914.3 970.7 1005.7 981.3 1097 985.5C1188.3 989.7 1279.7 987.3 1371.2 989.2C1462.7 991 1554.3 997 1645.8 993C1737.3 989 1828.7 975 1874.3 968L1920 961L1920 1081L1874.3 1081C1828.7 1081 1737.3 1081 1645.8 1081C1554.3 1081 1462.7 1081 1371.2 1081C1279.7 1081 1188.3 1081 1097 1081C1005.7 1081 914.3 1081 823 1081C731.7 1081 640.3 1081 548.8 1081C457.3 1081 365.7 1081 274.2 1081C182.7 1081 91.3 1081 45.7 1081L0 1081Z" fill="#171717"></path></svg>